<?xml version="1.0" standalone="no"?>
<!DOCTYPE svg PUBLIC "-//W3C//DTD SVG 20010904//EN"
 "http://www.w3.org/TR/2001/REC-SVG-20010904/DTD/svg10.dtd">
<svg version="1.0" xmlns="http://www.w3.org/2000/svg"
 width="900.000000pt" height="498.000000pt" viewBox="0 0 900.000000 498.000000"
 preserveAspectRatio="xMidYMid meet">
<metadata>
Created by potrace 1.10, written by Peter Selinger 2001-2011
</metadata>
<g transform="translate(0.000000,498.000000) scale(0.100000,-0.100000)"
fill="#0f2f7f" stroke="none">
<path d="M6647 4404 c-4 -4 -7 -20 -7 -36 0 -15 -4 -28 -10 -28 -14 0 -12 -27
4 -53 10 -15 14 -52 14 -117 0 -78 -4 -99 -20 -119 -16 -21 -18 -35 -12 -91 5
-54 3 -68 -10 -79 -9 -7 -16 -25 -16 -39 0 -13 -9 -39 -19 -56 -22 -36 -79
-81 -89 -71 -4 4 -7 26 -7 48 0 35 -3 42 -20 42 -19 0 -20 -6 -17 -133 3 -113
1 -133 -12 -138 -18 -7 -22 -49 -6 -59 13 -8 13 -48 1 -60 -12 -12 -18 -166
-7 -183 11 -19 0 -29 -49 -41 -51 -13 -48 -4 -45 -168 1 -40 -4 -81 -10 -92
-8 -16 -7 -28 7 -52 72 -127 74 -132 67 -187 -4 -42 -2 -58 11 -72 10 -11 15
-31 13 -52 -3 -29 -7 -33 -36 -36 -19 -2 -44 4 -59 13 -21 14 -24 22 -19 49 6
33 -15 78 -30 63 -5 -5 -8 -51 -7 -102 1 -70 -3 -97 -13 -106 -8 -7 -12 -20
-9 -30 8 -25 -22 -37 -38 -17 -30 38 -129 72 -207 72 -62 0 -94 -8 -170 -42
-114 -52 -204 -176 -225 -309 -6 -37 -4 -44 21 -65 111 -95 194 -224 194 -303
0 -39 5 -43 69 -60 59 -15 64 -41 7 -37 -53 4 -76 -18 -76 -74 0 -54 -56 -177
-99 -218 -40 -39 -39 -53 7 -72 20 -9 44 -20 52 -25 8 -5 22 -12 30 -16 64
-28 220 -190 220 -228 0 -18 -47 -28 -70 -15 -11 6 -20 17 -20 25 0 29 -129
142 -208 181 -77 38 -78 38 -201 39 -72 0 -126 5 -128 10 -3 10 36 26 102 44
49 13 123 66 160 114 19 25 35 50 35 55 0 5 7 15 15 22 8 7 15 24 15 39 0 14
7 35 15 45 29 38 13 190 -26 256 -5 8 -14 26 -19 38 -16 38 -121 136 -170 159
-164 78 -324 48 -453 -83 -43 -44 -97 -138 -97 -170 0 -8 -7 -31 -15 -50 l-14
-35 77 -77 c75 -76 132 -162 132 -201 0 -11 4 -22 9 -25 4 -3 11 -23 14 -43 6
-37 9 -39 67 -56 75 -23 75 -42 0 -42 l-54 0 -13 -65 c-8 -36 -16 -77 -19 -91
-5 -23 -10 -25 -55 -26 -27 0 -49 1 -49 4 0 2 8 18 17 36 15 28 32 108 34 157
2 43 -22 141 -46 187 -28 53 -120 153 -141 153 -6 0 -17 7 -24 15 -7 8 -22 15
-34 15 -11 0 -30 7 -40 15 -29 22 -168 20 -231 -3 -125 -45 -206 -126 -255
-254 -25 -67 -29 -218 -5 -238 8 -7 15 -23 15 -35 0 -29 75 -132 126 -172 62
-49 119 -63 254 -63 98 0 120 -3 120 -14 0 -26 -110 -41 -210 -29 -61 8 -165
3 -237 -12 -42 -9 -50 9 -28 61 l15 37 -33 28 c-37 30 -87 123 -98 184 -24
125 -23 124 -118 111 -52 -7 -74 -7 -83 2 -9 9 -8 12 3 15 8 2 30 10 49 16 19
7 50 16 68 21 46 11 82 47 82 82 0 42 55 138 121 213 32 36 59 71 59 78 -1 7
-7 30 -15 52 -8 22 -15 47 -15 55 0 8 -11 35 -25 60 -13 25 -28 54 -34 65 -24
51 -136 127 -227 153 -117 34 -269 -10 -365 -107 -45 -46 -99 -135 -99 -164 0
-12 -7 -31 -15 -41 -30 -39 -15 -146 37 -261 34 -78 135 -166 213 -186 59 -15
110 -37 105 -46 -3 -4 -64 -8 -135 -8 -108 0 -136 -3 -158 -18 -14 -9 -31 -17
-37 -17 -7 0 -37 -17 -68 -37 -132 -86 -212 -212 -230 -363 -8 -64 -26 -74
-57 -32 -23 32 -24 97 -2 139 8 15 23 46 33 68 29 61 101 152 153 193 44 35
133 84 174 96 24 8 21 39 -7 65 -40 38 -96 163 -96 215 0 76 0 76 -257 76
-175 0 -231 -3 -251 -14 -15 -8 -49 -25 -77 -37 -51 -24 -178 -142 -196 -182
-5 -12 -13 -29 -18 -37 -55 -97 -63 -155 -60 -430 2 -135 0 -251 -4 -256 -8
-14 -10 -470 -2 -484 9 -14 4389 -14 4416 1 13 7 18 16 14 28 -9 29 14 407 26
434 9 19 8 30 -4 48 -11 16 -16 48 -16 97 0 53 -4 79 -15 91 -23 26 -24 662
-1 681 8 7 15 27 15 45 0 18 -7 38 -15 45 -9 7 -15 29 -15 55 0 26 -6 48 -15
55 -8 7 -15 20 -15 30 0 10 7 23 15 30 21 18 19 29 -11 53 l-27 21 8 110 c12
183 13 250 5 261 -4 6 -10 56 -12 112 -3 62 -10 108 -18 118 -10 12 -10 18 0
30 10 12 9 20 -4 41 -21 31 -50 28 -54 -5 -4 -23 -55 -81 -72 -81 -12 0 -19
82 -14 161 4 52 14 91 32 129 24 49 31 84 42 215 1 6 -1 35 -3 65 -2 30 0 63
6 74 15 31 -7 42 -48 23 -20 -9 -40 -17 -45 -17 -14 0 -13 147 1 172 9 16 8
35 -1 74 -11 46 -11 56 4 78 20 31 21 70 1 86 -22 18 -18 66 8 101 l22 31 -22
18 c-20 15 -21 20 -8 30 8 7 15 23 15 36 0 19 -5 24 -25 24 -26 0 -28 -6 -25
-52 1 -14 -4 -29 -11 -33 -14 -9 -40 22 -71 85 -12 25 -32 59 -44 75 -29 39
-32 74 -10 107 18 28 15 59 -9 88 -9 10 -13 47 -13 108 0 92 0 93 26 103 l27
10 -22 17 c-15 11 -23 30 -25 57 -3 38 -23 57 -41 39z m48 -625 c11 -28 39
-72 63 -98 l44 -46 -3 -210 c-1 -115 -3 -229 -3 -252 -1 -47 30 -90 68 -95 19
-3 21 -10 24 -86 2 -60 -2 -92 -13 -114 -8 -17 -15 -37 -15 -44 0 -7 -7 -20
-16 -29 -11 -10 -18 -40 -21 -83 -2 -37 -9 -79 -15 -94 -7 -20 -5 -44 8 -98
16 -60 24 -74 51 -91 l33 -21 29 21 c16 12 34 21 40 21 12 0 15 -90 11 -378
-1 -132 2 -187 10 -197 8 -10 10 -29 7 -53 -5 -29 -1 -46 15 -72 22 -35 22
-37 19 -453 -2 -369 -1 -421 13 -442 23 -34 30 -226 16 -395 -6 -74 -12 -151
-13 -170 l-2 -35 -2144 0 -2144 0 2 188 c1 113 7 199 13 215 7 15 34 51 62 80
47 49 53 52 100 52 27 0 57 6 65 13 28 23 65 34 86 26 11 -4 41 -8 68 -8 41
-1 50 -5 65 -29 43 -71 101 -122 137 -122 11 0 36 13 55 30 21 17 47 29 65 30
17 0 39 7 49 15 11 8 33 15 49 15 15 0 37 5 49 11 11 6 68 15 126 21 126 11
145 11 194 3 31 -6 41 -3 63 19 14 14 28 39 31 56 5 24 16 34 52 50 52 23 87
25 122 5 14 -8 35 -14 46 -15 26 0 34 -18 34 -76 0 -69 52 -104 156 -104 24 0
47 -6 54 -15 10 -12 37 -14 169 -8 86 3 164 10 174 15 34 18 57 70 57 131 l0
58 45 20 c24 11 47 24 50 29 3 6 15 10 27 10 11 0 33 8 49 17 27 16 31 16 62
1 28 -15 162 -67 210 -82 14 -5 17 -18 17 -92 0 -83 1 -87 31 -115 29 -27 37
-29 109 -29 57 0 81 4 90 15 7 8 21 15 32 15 25 0 89 33 111 58 15 17 21 35
26 83 1 4 11 9 24 12 33 8 105 35 151 58 32 15 67 21 155 24 109 4 116 6 144
32 56 54 57 59 57 354 0 258 -1 273 -21 305 -11 19 -25 34 -30 34 -16 0 -10
44 11 85 11 22 20 55 20 75 0 20 4 40 9 46 5 5 11 124 13 264 5 306 9 320 86
320 72 1 96 24 94 91 0 30 -1 87 -2 127 -2 73 -14 111 -62 192 -17 29 -21 53
-22 138 0 59 3 107 9 112 5 4 24 11 42 14 38 9 52 39 52 116 0 30 4 120 10
200 6 80 8 155 5 167 -5 16 1 25 23 37 55 29 102 83 115 130 7 25 17 46 23 46
6 0 19 -23 30 -51z m-635 -1388 c52 -12 124 -49 151 -77 18 -19 21 -29 13 -42
-6 -10 -10 -64 -9 -127 1 -60 -3 -120 -8 -133 -7 -16 -6 -29 3 -47 11 -21 11
-32 2 -59 -7 -18 -12 -43 -12 -57 0 -13 -4 -28 -8 -34 -17 -23 -72 -53 -137
-74 -70 -22 -70 -22 -125 -3 -52 18 -55 21 -61 58 -11 74 -68 174 -142 247
-77 77 -77 76 -31 174 41 85 119 145 234 178 44 13 59 12 130 -4z m-1930 -407
c25 -9 52 -23 61 -30 8 -8 20 -14 27 -14 29 0 103 -113 131 -201 14 -46 17
-40 -29 -90 -52 -56 -65 -72 -73 -90 -4 -8 -11 -21 -15 -29 -23 -40 -41 -88
-44 -115 -4 -39 -59 -67 -146 -73 -91 -6 -164 23 -241 99 -34 33 -61 65 -61
73 0 7 -7 19 -15 26 -8 7 -15 24 -15 39 0 15 -5 32 -11 38 -12 12 -8 96 8 153
15 55 64 125 113 163 95 71 204 89 310 51z m1375 -18 c50 -27 109 -84 126
-121 5 -11 13 -27 18 -35 29 -49 43 -191 21 -205 -5 -3 -10 -15 -10 -26 0 -18
-18 -55 -50 -107 -17 -25 -113 -102 -129 -102 -6 0 -25 -6 -43 -14 -63 -26
-98 -34 -104 -25 -3 5 -16 9 -30 9 -43 0 -61 18 -80 77 -29 92 -72 163 -140
233 -60 61 -63 67 -57 100 15 86 94 182 185 225 48 23 63 25 148 22 80 -3 103
-8 145 -31z m665 -274 c0 -23 -39 -42 -86 -42 -50 0 -43 30 11 46 58 18 75 17
75 -4z m-1401 -98 c118 -33 181 -82 230 -176 29 -55 32 -70 32 -148 0 -61 -5
-98 -17 -126 -25 -54 -132 -164 -161 -164 -12 0 -26 -7 -31 -17 -19 -32 -187
-34 -242 -2 -8 5 -24 13 -35 18 -33 14 -134 129 -141 159 -3 15 -13 42 -21 61
-17 38 -13 145 6 164 6 6 11 19 11 28 0 21 48 95 82 125 30 28 91 58 153 77
65 20 69 20 134 1z m1257 5 c4 -7 35 -10 83 -8 126 5 116 26 113 -243 -3 -262
-6 -288 -34 -318 -24 -26 -86 -25 -99 2 -5 10 -14 26 -19 35 -6 10 -14 27 -19
39 -19 43 -155 171 -208 195 -29 13 -55 30 -58 37 -3 7 6 28 19 45 34 46 66
124 66 162 0 36 19 58 43 49 9 -3 24 -1 34 5 24 14 70 14 79 0z m-2525 -74 c6
-51 32 -116 69 -171 l21 -32 -48 -23 c-83 -39 -136 -84 -203 -174 -48 -65 -75
-114 -84 -157 -5 -24 -11 -28 -40 -28 -25 0 -38 -7 -50 -25 -18 -27 -41 -32
-53 -12 -16 27 -45 27 -99 2 -29 -14 -56 -30 -59 -35 -3 -6 -29 -10 -56 -10
-44 0 -54 -4 -76 -30 -13 -16 -33 -30 -42 -30 -19 0 -18 -23 -8 328 3 106 7
121 55 222 23 49 128 151 182 176 102 49 126 53 310 51 l175 -2 6 -50z m1873
-320 c15 -11 48 -15 128 -15 110 0 126 -4 226 -54 43 -21 162 -127 162 -144 0
-24 -36 -39 -149 -63 -53 -11 -60 -20 -54 -68 6 -43 -1 -51 -72 -76 -27 -10
-59 -25 -70 -32 -26 -17 -65 -17 -91 2 -28 19 -40 131 -20 180 17 40 13 45
-30 45 -19 0 -51 6 -71 14 -21 8 -50 17 -64 20 -15 3 -36 14 -48 23 -22 18
-22 19 -6 73 24 79 28 85 66 88 19 2 38 8 44 13 13 13 27 11 49 -6z m-1199
-16 c3 -4 8 -24 12 -45 3 -22 14 -57 24 -80 26 -55 25 -68 -3 -58 -54 18 -182
-3 -201 -33 -4 -7 -19 -13 -32 -13 -27 0 -34 -27 -13 -48 9 -9 9 -16 -4 -28
-13 -13 -20 -14 -38 -4 -13 7 -39 9 -64 6 -22 -3 -45 -6 -51 -7 -5 0 -51 2
-102 5 l-92 5 -21 -29 c-16 -22 -30 -30 -53 -30 -18 0 -41 -7 -51 -15 -25 -19
-55 -19 -62 0 -7 18 26 111 61 170 36 62 102 125 161 154 27 13 58 29 69 35
29 16 445 29 460 15z m424 -398 c12 -8 9 -11 -11 -16 -29 -8 -52 1 -43 16 8
12 36 11 54 0z"/>
<path d="M4570 2855 c-14 -8 -33 -14 -42 -15 -22 0 -101 -53 -145 -98 -52 -51
-102 -135 -109 -181 -4 -23 -11 -44 -15 -47 -12 -7 -12 -151 0 -158 4 -3 11
-24 15 -47 8 -48 62 -135 119 -189 48 -47 116 -82 170 -89 28 -4 43 -12 45
-22 3 -14 -11 -17 -92 -21 -104 -4 -130 -16 -108 -46 7 -9 15 -24 18 -32 3 -8
11 -28 19 -43 8 -15 18 -57 21 -93 8 -72 21 -87 58 -64 57 36 203 48 292 24
75 -20 83 -16 91 47 5 50 29 113 55 148 31 41 5 55 -107 59 -69 3 -95 7 -95
17 0 15 22 25 55 25 63 0 203 109 239 185 9 19 21 37 26 40 6 3 10 16 10 29 0
12 7 31 15 42 20 27 20 191 0 218 -8 11 -15 28 -15 39 0 48 -146 227 -185 227
-6 0 -16 5 -22 11 -43 43 -257 66 -313 34z m197 -65 c76 -25 129 -55 173 -99
48 -48 90 -119 90 -151 0 -10 5 -22 10 -25 23 -14 8 -165 -21 -215 -5 -8 -18
-32 -29 -52 -42 -77 -126 -142 -223 -172 -32 -9 -61 -24 -64 -32 -7 -19 -19
-18 -41 4 -9 9 -37 23 -62 31 -74 22 -84 28 -144 80 -56 48 -108 128 -119 181
-29 139 3 260 93 349 44 43 123 91 150 91 10 0 32 6 50 14 36 15 81 13 137 -4z
m-59 -841 c11 -17 22 -20 80 -19 37 1 73 1 80 1 16 -1 15 -42 -3 -65 -8 -11
-15 -31 -15 -44 0 -21 -3 -23 -22 -16 -13 4 -65 9 -116 11 -74 4 -98 1 -118
-12 -14 -9 -35 -15 -47 -13 -17 2 -23 11 -25 40 -2 20 -10 42 -18 48 -8 7 -14
21 -14 31 0 17 8 19 75 19 61 0 78 4 93 19 23 25 34 25 50 0z"/>
<path d="M3285 2451 c-108 -28 -205 -108 -266 -217 -32 -57 -33 -63 -34 -174
0 -94 3 -121 18 -143 9 -14 17 -33 17 -42 0 -8 33 -48 73 -89 90 -90 131 -108
274 -113 86 -4 109 -1 148 16 43 19 45 22 45 61 0 23 6 54 14 68 7 15 22 45
32 67 11 21 53 74 95 116 l76 77 -8 43 c-23 132 -102 237 -224 299 -50 25 -76
31 -145 35 -47 2 -98 1 -115 -4z m196 -81 c29 -12 70 -34 93 -50 43 -31 106
-117 106 -145 0 -9 7 -26 15 -39 20 -30 12 -48 -33 -83 -21 -15 -43 -35 -50
-45 -8 -11 -21 -26 -30 -36 -10 -9 -25 -35 -36 -57 -10 -22 -25 -52 -32 -67
-8 -14 -14 -41 -14 -60 0 -19 -5 -39 -12 -46 -18 -18 -199 -16 -224 3 -10 8
-25 15 -33 15 -26 0 -121 104 -151 165 -57 117 -35 254 56 355 87 96 232 134
345 90z"/>
</g>
</svg>
