<?xml version="1.0" standalone="no"?>
<!DOCTYPE svg PUBLIC "-//W3C//DTD SVG 20010904//EN"
 "http://www.w3.org/TR/2001/REC-SVG-20010904/DTD/svg10.dtd">
<svg version="1.0" xmlns="http://www.w3.org/2000/svg"
 width="900.000000pt" height="888.000000pt" viewBox="0 0 900.000000 888.000000"
 preserveAspectRatio="xMidYMid meet">
<metadata>
Created by potrace 1.10, written by Peter Selinger 2001-2011
</metadata>
<g transform="translate(0.000000,888.000000) scale(0.100000,-0.100000)"
fill="#0f2f7f" stroke="none">
<path d="M6654 6379 c3 -17 6 -37 7 -43 0 -6 6 5 13 24 14 39 12 50 -11 50
-12 0 -14 -7 -9 -31z"/>
<path d="M6622 6288 c-8 -8 -6 -17 8 -35 14 -18 18 -42 19 -109 1 -47 4 -90 7
-95 3 -6 -6 -21 -21 -35 -25 -23 -26 -27 -19 -96 6 -60 4 -73 -10 -83 -9 -7
-18 -30 -20 -50 -2 -29 -12 -47 -44 -76 -56 -52 -73 -51 -70 4 3 36 0 42 -17
42 -19 0 -20 -6 -17 -132 3 -117 1 -132 -14 -141 -16 -9 -17 -14 -4 -52 10
-31 11 -46 3 -59 -13 -21 -21 -171 -9 -189 12 -19 -1 -30 -44 -37 -22 -4 -42
-11 -46 -16 -3 -5 -5 -56 -5 -114 1 -57 -4 -116 -9 -130 -8 -20 -6 -33 8 -57
71 -126 73 -131 66 -186 -4 -42 -2 -58 11 -72 10 -11 15 -31 13 -52 -3 -29 -7
-33 -36 -36 -19 -2 -44 4 -59 13 -21 14 -24 22 -19 49 6 33 -15 78 -30 63 -5
-5 -8 -51 -7 -102 1 -70 -3 -97 -13 -106 -8 -7 -12 -20 -9 -30 8 -25 -22 -37
-38 -17 -30 38 -129 72 -207 72 -62 0 -94 -8 -170 -42 -115 -53 -206 -179
-225 -313 -6 -41 -4 -47 19 -62 85 -56 182 -202 193 -290 7 -53 15 -63 59 -70
38 -6 64 -23 64 -40 0 -6 -15 -7 -38 -3 -56 9 -82 -13 -82 -69 0 -62 -38 -149
-98 -224 l-36 -44 23 -18 c13 -11 29 -19 37 -19 49 0 225 -148 270 -228 16
-29 17 -34 4 -42 -31 -20 -59 -11 -84 28 -38 61 -131 138 -214 179 l-77 38
-122 -2 c-102 -2 -123 0 -123 12 0 8 8 15 18 15 22 0 106 30 147 52 48 26 102
80 125 126 12 23 26 45 31 48 5 3 9 17 9 32 0 15 7 36 15 46 29 38 13 190 -26
256 -5 8 -13 24 -18 35 -15 35 -104 122 -156 152 -131 77 -306 61 -430 -37
-63 -50 -135 -162 -135 -209 0 -10 -7 -35 -15 -55 -15 -35 -15 -36 17 -63 94
-80 178 -196 178 -248 0 -7 5 -17 10 -20 6 -3 10 -17 10 -30 0 -42 11 -53 71
-72 78 -24 80 -46 2 -41 l-57 3 -13 -65 c-8 -36 -16 -77 -19 -92 -5 -24 -11
-27 -45 -26 -22 0 -46 -5 -54 -12 -11 -9 -10 1 6 36 21 46 39 125 41 169 2 85
-49 217 -104 274 -77 78 -196 131 -297 131 -100 0 -219 -56 -288 -134 -37 -42
-51 -67 -87 -149 -21 -50 -22 -203 -1 -231 8 -11 15 -30 15 -42 0 -12 7 -27
15 -34 8 -7 15 -16 15 -21 0 -26 99 -116 160 -147 51 -25 64 -27 182 -27 70 0
130 -3 133 -7 4 -3 -6 -15 -21 -25 -22 -14 -44 -17 -109 -15 -169 5 -212 5
-282 -2 -85 -9 -97 2 -69 61 l17 35 -35 32 c-46 41 -96 136 -96 180 0 19 -4
38 -10 41 -5 3 -10 17 -10 30 0 35 -16 40 -107 36 -71 -3 -83 -1 -83 13 0 10
9 16 25 16 36 0 141 37 165 57 12 10 20 30 20 48 0 46 54 144 120 219 33 37
60 72 60 79 -1 7 -7 30 -15 52 -8 22 -15 46 -15 53 0 43 -75 155 -135 202
-142 113 -322 115 -470 6 -56 -42 -115 -110 -115 -134 0 -5 -7 -15 -15 -22 -8
-7 -15 -23 -15 -37 0 -13 -7 -38 -16 -55 -37 -71 9 -240 93 -337 57 -67 102
-90 261 -137 7 -2 11 -8 7 -13 -3 -6 -60 -9 -133 -8 l-127 2 -80 -40 c-172
-86 -268 -219 -293 -410 -8 -59 -27 -68 -57 -27 -24 32 -24 111 0 144 8 13 15
28 15 35 0 18 66 123 103 164 61 68 200 159 242 159 19 0 20 46 2 57 -18 11
-69 90 -86 133 -7 19 -17 61 -21 94 -5 32 -14 62 -22 67 -7 5 -106 9 -219 9
-207 0 -282 -10 -329 -44 -8 -6 -31 -20 -50 -31 -60 -33 -145 -130 -182 -208
-56 -116 -60 -149 -57 -427 2 -137 0 -252 -4 -256 -11 -12 -9 -492 3 -499 6
-4 10 -125 10 -330 0 -310 1 -325 19 -335 14 -7 711 -10 2185 -10 1892 0 2166
2 2179 15 13 12 16 77 20 387 6 423 21 722 39 756 10 19 9 28 -5 51 -11 19
-16 50 -15 101 0 57 -3 75 -16 82 -14 8 -16 45 -16 342 0 284 2 335 15 346 8
7 15 27 15 45 0 18 -7 38 -15 45 -9 7 -15 29 -15 55 0 26 -6 48 -15 55 -20 16
-19 39 2 62 15 17 14 19 -11 43 -26 24 -27 29 -23 103 12 190 14 288 7 297 -4
6 -10 56 -12 112 -3 62 -10 108 -18 118 -10 12 -10 18 0 30 10 12 9 20 -4 41
-21 31 -50 28 -54 -5 -4 -23 -55 -81 -72 -81 -12 0 -19 82 -14 161 4 53 14 91
35 135 26 56 29 72 33 200 2 76 8 147 11 156 10 26 -18 33 -56 14 -20 -10 -36
-13 -42 -7 -5 5 -6 44 -3 87 6 74 7 114 4 189 -1 17 5 45 13 62 12 29 11 36
-4 62 -22 38 -22 73 3 101 24 28 24 29 3 52 -13 14 -14 21 -5 30 7 7 12 23 12
36 0 20 -4 23 -27 20 -25 -3 -28 -7 -25 -34 2 -18 -3 -36 -12 -43 -11 -10 -18
-5 -35 22 -12 19 -21 38 -21 41 0 4 -16 32 -35 61 -44 66 -58 110 -41 127 32
33 29 93 -5 103 -13 4 -18 13 -15 23 3 9 6 51 7 92 2 48 7 81 16 92 13 14 12
19 -8 42 -24 28 -48 33 -67 14z m77 -565 c14 -31 42 -73 64 -93 l39 -38 -3
-213 c-4 -299 -4 -297 16 -319 9 -10 30 -22 47 -25 l29 -7 -4 -91 c-3 -89 -18
-148 -46 -181 -7 -9 -15 -46 -18 -83 -2 -38 -9 -80 -15 -95 -7 -20 -5 -44 8
-98 16 -60 24 -74 51 -91 l33 -21 29 21 c16 12 34 21 40 21 12 0 15 -90 11
-378 -1 -132 2 -187 10 -197 8 -9 10 -29 7 -51 -5 -27 0 -48 16 -78 22 -41 22
-45 18 -454 -3 -376 -1 -415 14 -439 14 -21 18 -53 18 -182 3 -273 -14 -1106
-22 -1114 -4 -4 -968 -6 -2142 -5 l-2134 3 -3 525 c-2 344 1 537 8 561 5 20
34 61 63 93 48 50 57 56 84 50 21 -4 47 2 84 19 46 21 64 24 126 20 70 -5 72
-6 97 -43 55 -83 86 -110 125 -110 28 0 44 7 66 30 22 23 38 30 66 30 21 0 40
4 43 9 3 5 27 12 53 16 27 4 67 13 91 21 28 10 89 15 182 16 155 1 169 7 187
77 7 26 16 36 48 48 66 24 81 26 113 9 17 -9 40 -16 51 -16 26 0 41 -29 41
-80 0 -34 6 -48 31 -71 27 -26 38 -29 94 -29 43 0 66 -5 75 -15 10 -12 42 -15
174 -15 151 1 163 2 187 23 35 30 53 80 50 137 l-2 47 50 22 c27 11 53 26 56
31 3 6 16 10 28 10 13 0 32 7 44 15 21 15 52 5 208 -65 11 -5 31 -10 45 -12
24 -3 25 -5 28 -94 3 -85 4 -93 32 -119 40 -38 138 -47 201 -17 24 11 59 26
76 32 18 7 44 23 59 37 23 21 28 37 33 96 1 4 9 7 19 7 22 1 116 33 134 46 25
20 94 33 198 39 112 7 119 10 162 74 16 23 18 56 18 303 0 263 -1 279 -21 312
-12 20 -25 36 -30 36 -15 0 -10 52 6 70 8 9 18 39 21 66 3 27 9 58 14 69 5 11
11 133 13 270 5 295 9 315 78 315 65 0 97 22 104 73 4 24 2 62 -4 84 -6 22 -8
60 -5 84 6 45 -8 86 -58 169 -17 29 -21 52 -22 138 -1 59 3 107 9 112 6 4 24
11 42 14 38 9 52 39 52 116 0 30 4 120 10 200 6 80 8 154 5 165 -4 16 7 29 51
60 53 38 95 99 95 139 0 34 26 13 49 -41z m-639 -1382 c52 -12 124 -48 151
-77 18 -19 21 -29 13 -42 -6 -10 -10 -64 -9 -127 1 -60 -3 -120 -8 -133 -7
-16 -6 -29 3 -47 11 -21 11 -32 2 -59 -7 -18 -12 -45 -12 -60 0 -41 -47 -78
-135 -105 -76 -23 -76 -23 -133 -5 -55 18 -57 21 -63 59 -11 74 -66 172 -141
246 -78 79 -78 78 -32 175 40 86 129 152 239 180 28 7 59 10 70 7 11 -2 36 -8
55 -12z m-1928 -408 c116 -46 180 -120 219 -251 l12 -43 -40 -42 c-84 -88
-120 -152 -130 -229 -5 -34 -10 -40 -50 -58 -58 -25 -159 -27 -228 -3 -57 21
-160 116 -187 173 -37 80 -52 190 -28 205 6 3 10 17 10 30 0 32 63 135 97 160
16 11 53 32 83 47 67 34 173 39 242 11z m1358 -10 c49 -22 125 -90 141 -127 5
-11 13 -28 18 -36 31 -53 40 -155 20 -219 -18 -56 -21 -62 -62 -122 -33 -49
-162 -129 -208 -129 -11 0 -28 -6 -39 -12 -15 -10 -22 -10 -32 0 -6 6 -22 12
-34 12 -41 0 -53 11 -70 68 -28 97 -66 162 -136 235 -64 67 -68 73 -62 106 16
90 108 192 209 234 55 23 193 18 255 -10z m680 -281 c0 -23 -39 -42 -85 -42
-50 0 -45 25 8 43 58 21 77 21 77 -1z m-1390 -103 c103 -27 176 -85 220 -173
27 -57 31 -75 31 -150 0 -69 -5 -95 -24 -138 -30 -64 -115 -148 -151 -148 -14
0 -29 -6 -33 -14 -23 -38 -131 -49 -213 -20 -68 24 -174 113 -198 169 -45 101
-50 155 -22 245 12 38 25 70 30 70 4 0 11 11 14 24 11 45 105 107 211 139 52
16 60 16 135 -4z m1245 11 c3 -5 46 -10 95 -10 58 0 91 -4 96 -12 10 -15 8
-453 -1 -493 -14 -58 -32 -75 -78 -75 -42 0 -43 1 -70 58 -41 91 -176 219
-260 246 -26 8 -33 37 -14 51 10 7 17 16 17 22 0 5 5 14 12 21 17 17 39 80 47
132 6 43 8 45 41 48 19 2 39 8 45 13 12 12 62 12 70 -1z m-2527 -74 c2 -27 10
-59 18 -70 8 -11 14 -27 14 -34 0 -8 14 -31 30 -52 17 -21 30 -41 30 -44 0 -3
-19 -15 -42 -27 -63 -32 -140 -93 -184 -147 -52 -62 -104 -147 -104 -171 0
-37 -11 -51 -36 -45 -17 4 -30 -1 -47 -20 -27 -29 -49 -33 -67 -11 -7 8 -22
15 -34 15 -25 0 -101 -34 -111 -50 -3 -5 -32 -10 -63 -10 -52 0 -59 -3 -77
-30 -17 -26 -52 -49 -59 -38 -1 1 1 102 4 223 7 221 11 246 51 315 5 8 13 25
18 36 18 42 116 131 171 156 118 54 134 57 315 55 l170 -2 3 -49z m1991 -336
c115 0 120 -1 231 -53 25 -11 73 -48 108 -82 67 -66 73 -90 23 -101 -14 -3
-41 -12 -59 -20 -18 -8 -46 -14 -62 -14 -35 0 -50 -22 -43 -66 4 -26 0 -35
-24 -52 -16 -11 -42 -24 -59 -28 -16 -4 -38 -13 -49 -20 -24 -17 -86 -18 -108
-1 -12 9 -17 30 -18 87 -1 41 0 86 2 100 4 25 -3 28 -156 69 -39 10 -75 29
-75 40 0 5 7 33 16 62 9 30 18 60 20 67 2 6 18 12 37 12 18 0 42 6 53 14 16
13 21 13 35 0 11 -10 45 -14 128 -14z m-1311 -18 c6 -8 12 -30 12 -47 0 -17 6
-39 13 -50 8 -11 19 -35 25 -53 11 -32 10 -33 -11 -26 -12 3 -26 10 -31 15
-11 10 -97 0 -111 -12 -5 -5 -19 -9 -31 -9 -12 0 -27 -7 -34 -15 -7 -8 -21
-15 -31 -15 -26 0 -33 -18 -18 -46 19 -36 0 -52 -44 -36 -41 15 -74 15 -82 2
-8 -13 -74 -13 -114 1 -24 8 -36 8 -44 0 -7 -7 -14 -7 -23 0 -19 15 -49 2 -62
-26 -9 -20 -19 -25 -51 -25 -22 0 -44 -6 -51 -15 -16 -19 -59 -20 -66 -1 -7
17 18 91 45 137 12 19 25 43 30 55 16 36 112 114 180 147 62 30 75 32 206 37
198 7 277 2 293 -18z m421 -381 c12 -8 9 -11 -11 -16 -29 -8 -52 1 -43 16 8
12 36 11 54 0z"/>
<path d="M2935 2438 c-3 -7 -4 -141 -2 -298 l2 -285 54 -3 c33 -2 57 1 61 8 4
6 5 54 2 106 l-5 94 75 0 c72 0 121 15 164 51 25 21 64 109 64 147 0 72 -58
151 -124 168 -14 3 -29 10 -32 15 -9 15 -254 11 -259 -3z m206 -92 c58 -10 89
-40 89 -86 0 -21 -3 -46 -6 -55 -10 -25 -79 -55 -129 -55 l-45 0 0 99 c0 101
5 114 40 106 8 -2 31 -6 51 -9z"/>
<path d="M6878 2393 c-15 -4 -28 -39 -45 -125 -4 -23 -11 -28 -33 -28 -31 0
-63 -25 -57 -44 2 -6 16 -12 30 -14 31 -4 33 -17 12 -69 -8 -19 -15 -43 -15
-52 0 -9 -6 -27 -13 -41 -21 -41 -38 -120 -31 -143 10 -31 22 -37 81 -37 56 0
68 9 58 41 -5 15 -13 19 -29 15 -51 -13 -54 12 -16 134 9 30 23 76 31 103 l13
47 48 0 c38 0 48 4 53 20 9 29 -2 40 -41 40 -42 0 -44 18 -12 84 18 37 19 47
8 60 -7 9 -15 15 -19 15 -3 -1 -14 -3 -23 -6z"/>
<path d="M4165 2380 c-3 -5 -2 -33 2 -62 11 -74 11 -72 -22 -78 -25 -4 -30
-10 -33 -38 -3 -28 1 -34 30 -46 l32 -14 -3 -119 c-2 -106 -1 -121 18 -144 17
-22 31 -27 86 -32 87 -8 95 -4 95 48 l0 44 -42 3 -43 3 -3 102 -3 102 43 3
c43 3 43 3 46 46 l3 42 -45 0 -46 0 0 75 0 75 -54 0 c-30 0 -58 -4 -61 -10z"/>
<path d="M3520 2255 c-14 -8 -33 -14 -42 -15 -26 0 -85 -77 -104 -136 -28 -90
6 -178 87 -230 31 -20 52 -24 109 -24 72 0 102 11 144 54 79 79 74 228 -9 306
-49 46 -144 69 -185 45z m97 -105 c88 -53 54 -209 -47 -210 -53 0 -100 50
-100 108 0 54 12 78 53 102 40 25 54 25 94 0z"/>
<path d="M4010 2253 c-14 -9 -29 -23 -34 -32 -8 -13 -10 -12 -20 1 -13 18 -73
28 -103 17 -19 -7 -20 -11 -11 -51 5 -24 8 -108 6 -188 l-3 -145 53 -3 c37 -2
52 1 53 10 1 7 1 63 -1 123 -2 101 0 112 19 129 12 11 37 20 59 21 l37 1 0 64
c0 72 -11 83 -55 53z"/>
<path d="M4544 2245 c-73 -34 -115 -89 -121 -163 -3 -31 0 -75 6 -97 10 -39
60 -105 79 -105 5 0 15 -7 22 -15 9 -11 33 -15 89 -15 66 1 81 4 116 28 62 43
85 92 85 182 0 75 0 76 -42 124 -69 78 -152 100 -234 61z m116 -90 c98 -51 66
-214 -42 -215 -30 0 -42 6 -67 37 -51 62 -37 141 32 180 29 16 42 16 77 -2z"/>
<path d="M5348 2230 c-31 -17 -38 -17 -48 -5 -7 8 -22 15 -34 15 -22 0 -23 -1
-77 -185 -11 -38 -24 -79 -29 -90 -9 -20 -30 -94 -30 -106 0 -4 9 -9 21 -12
27 -7 51 21 66 81 35 138 41 160 56 189 20 38 116 88 152 79 38 -10 56 -34 49
-64 -4 -15 -11 -31 -15 -36 -5 -6 -9 -19 -9 -30 0 -12 -7 -34 -15 -50 -8 -15
-15 -36 -15 -45 0 -9 -7 -29 -15 -45 -8 -15 -15 -39 -15 -52 0 -20 5 -24 29
-24 28 0 31 4 51 73 12 39 25 83 30 97 4 14 13 44 19 67 12 45 39 69 105 97
66 27 114 -1 100 -61 -10 -44 -45 -155 -60 -190 -8 -17 -14 -42 -14 -56 0 -57
65 -31 76 31 6 36 21 89 50 180 19 59 17 106 -5 133 -17 21 -28 24 -88 24 -60
0 -74 -4 -106 -27 -44 -34 -50 -34 -67 -4 -21 41 -101 49 -162 16z"/>
<path d="M6005 2232 c-98 -46 -166 -150 -166 -255 -1 -56 2 -63 35 -96 35 -35
39 -36 109 -36 65 0 78 4 129 35 42 25 58 41 58 57 0 12 -4 25 -10 28 -11 7
-46 -9 -75 -35 -29 -25 -88 -44 -116 -37 -45 11 -69 44 -69 92 l0 45 163 2
162 3 3 70 c3 69 2 71 -32 105 -31 29 -44 34 -93 37 -42 3 -69 -2 -98 -15z
m125 -47 c31 -16 44 -46 38 -85 -3 -22 -7 -23 -121 -24 -100 -1 -117 1 -117
15 0 23 60 77 105 93 52 19 60 19 95 1z"/>
<path d="M6435 2230 c-85 -46 -130 -107 -156 -208 -26 -103 22 -171 126 -180
48 -4 65 0 120 27 65 32 103 70 90 91 -10 17 -36 12 -70 -14 -39 -30 -100 -56
-130 -56 -13 0 -38 14 -55 31 -25 26 -30 38 -28 68 l3 36 162 3 163 2 5 28 c4
15 8 36 10 46 5 26 -26 96 -54 121 -34 30 -134 33 -186 5z m125 -45 c34 -18
50 -43 50 -79 0 -26 0 -26 -87 -26 -49 0 -105 -3 -125 -6 -33 -6 -38 -4 -38
13 0 25 54 74 105 95 52 21 60 21 95 3z"/>
<path d="M4915 1969 c-20 -18 -35 -40 -35 -53 1 -30 33 -65 69 -72 25 -5 36
-1 62 25 37 38 34 73 -9 108 -35 30 -45 29 -87 -8z"/>
<path d="M4630 4823 c-19 -2 -49 -10 -67 -18 -17 -8 -38 -15 -46 -15 -8 0 -20
-7 -27 -15 -7 -8 -18 -15 -24 -15 -20 0 -114 -96 -151 -154 -19 -30 -37 -73
-41 -95 -4 -23 -11 -44 -15 -47 -12 -7 -12 -151 0 -158 4 -3 11 -24 15 -46 7
-48 56 -131 105 -181 46 -47 139 -99 177 -99 37 0 58 -14 51 -33 -4 -12 -18
-14 -64 -10 -76 6 -137 -7 -141 -31 -2 -10 0 -21 5 -25 21 -14 53 -100 60
-161 7 -58 11 -65 31 -68 13 -2 31 3 40 11 21 18 155 40 202 33 19 -2 59 -10
88 -16 33 -8 58 -8 63 -3 5 5 13 34 18 64 10 60 26 102 53 138 17 22 17 26 3
40 -12 12 -39 16 -113 17 -76 1 -96 5 -94 15 5 19 22 29 53 29 43 0 119 39
165 86 52 51 114 145 114 172 0 10 7 27 15 38 20 27 20 191 0 218 -8 11 -15
30 -15 42 0 24 -55 111 -98 157 -33 34 -125 97 -144 97 -7 0 -25 6 -40 14 -29
15 -124 26 -178 19z m125 -79 c89 -29 139 -57 185 -103 48 -48 90 -119 90
-151 0 -10 5 -22 10 -25 23 -14 8 -165 -21 -215 -5 -8 -18 -31 -29 -51 -41
-77 -120 -139 -213 -170 -38 -12 -71 -28 -74 -36 -7 -17 -23 -17 -37 0 -12 14
-76 42 -116 51 -26 5 -142 98 -149 119 -2 7 -15 27 -29 45 -29 38 -45 102 -45
182 0 68 11 112 41 169 42 77 157 171 211 171 10 0 32 7 47 15 37 19 67 19
129 -1z m-49 -845 c20 -19 34 -21 99 -20 72 2 75 1 75 -21 0 -13 -7 -32 -15
-42 -8 -11 -15 -29 -15 -41 0 -28 -10 -37 -26 -24 -8 6 -52 14 -99 17 -68 4
-93 1 -124 -13 -54 -24 -74 -18 -82 27 -3 20 -11 44 -18 52 -27 32 -6 46 69
46 56 0 73 4 88 19 22 25 22 25 48 0z"/>
<path d="M3285 4401 c-107 -28 -213 -116 -267 -222 -31 -61 -33 -69 -33 -174
0 -89 4 -116 18 -138 9 -14 17 -31 17 -38 0 -10 48 -77 75 -104 25 -27 91 -71
124 -84 22 -9 82 -16 151 -18 98 -3 120 -1 150 15 31 17 36 25 40 68 5 44 11
60 42 114 4 8 13 26 19 40 5 13 43 56 83 95 l74 70 -8 45 c-24 133 -102 238
-225 300 -50 25 -76 31 -145 35 -47 2 -99 1 -115 -4z m196 -81 c29 -12 70 -34
93 -50 42 -31 106 -117 106 -144 0 -8 8 -28 18 -46 17 -31 17 -31 -10 -55 -15
-13 -35 -29 -45 -37 -27 -19 -96 -113 -109 -148 -3 -8 -12 -27 -20 -42 -8 -14
-14 -41 -14 -60 0 -56 -7 -60 -116 -59 -106 0 -138 10 -198 61 -98 84 -128
143 -134 255 -3 69 0 88 22 137 73 164 255 248 407 188z"/>
</g>
</svg>
